<?xml version="1.0" encoding="utf-8"?>
<!-- Generator: Adobe Illustrator 23.1.1, SVG Export Plug-In . SVG Version: 6.00 Build 0)  -->
<svg version="1.1" id="Layer_1" xmlns="http://www.w3.org/2000/svg" xmlns:xlink="http://www.w3.org/1999/xlink" x="0px" y="0px"
	 viewBox="0 0 800 800" style="enable-background:new 0 0 800 800;" xml:space="preserve">
<style type="text/css">
	.st0{fill:#051926;}
	.st1{fill:#FFFFFF;}
	.st2{fill:#3A9CD0;}
</style>
<g>
	<g>
		<path class="st0" d="M544.62,271.59c0,0-1.19,5.84-6.3,7.58c0,0-7.3,10.86-9.13,15.61c0,0-9.22,16.89-29.67,29.03
			c0,0-6.48,5.75-8.58,12.51c0,0-10.7,28.71-14.88,47.24c0,0-7.6,29.54-22.65,53.72c0,0-5.97,11.5,6.08,16.38
			c0,0,7.53,3.83,9.04,4.11c0,0,4.66,1.92,4.38,9.45h-41.9H323.9c0,0-24.28-1.55-31.04-33.87c0,0-12.05-62.53,40.26-104.7
			c0,0,24.56-17.44,58.7-26.38c0,0,14.42-5.11,28.48-14.24c0,0,13.51-10.77,31.4-14.61c0,0,18.94-6.18,29.94-16.14
			c0,0-4.06-7.64,0.05-11.06c0,0,3.08-2.33,9.17,0c0,0,4.45,0.62,8.01-1.51c0,0,6.85-3.7,16.09-4.11c0,0,4.93-0.07,7.74-0.48
			c0,0,7.39-0.89,13.69,2.19c0,0,2.72-3.73,7.28-1.18c0,0,4.88,4.74,0,13.16c0,0,4.02,4.38,3.06,13.28
			C546.72,267.57,546.7,271.16,544.62,271.59z"/>
		<g>
			<path class="st1" d="M523.17,262.46c-0.01,0.02-0.02,0.03-0.03,0.06C523.16,262.49,523.17,262.46,523.17,262.46z"/>
			<path class="st1" d="M539.91,253.01c-2.42-1.64-3.61-3.83-3.61-3.83c-0.96-2.97,1.96-2.83,1.96-2.83
				c2.33,0.09,5.34,4.24,5.34,4.24c-1.41-4.61-5.38-5.61-5.38-5.61c-11.07-4.43-24.56-1.19-24.56-1.19
				c-7.35,1.46-11.27,3.38-11.27,3.38c-4.2,2.05-10.3,1.25-10.3,1.25c1.64,0.5,5.04,3.54,5.04,3.54c0.41-1,3.56-2.33,3.56-2.33
				c0.57,4.06,4.93,5.93,4.93,5.93c6.14,3.84,13.97,5.71,13.97,5.71c2.28-0.27,4.11,1.19,4.11,1.19c-1.55,3.74,0,6.21,0,6.21
				c2.28,3.19,7.76,4.75,7.76,4.75l4.38-3.38c0.55-1.46-1.1-2.65-1.1-2.65c-2.56-1.28-4.56-4.93-4.56-4.93
				c-0.82-6.98,3.74-7.53,3.74-7.53c3.06-1.14,6.16-0.68,6.16-0.68c1.78,0.23,4.11,2.1,4.11,2.1
				C543.29,254.84,539.91,253.01,539.91,253.01z"/>
		</g>
		<g>
			<path class="st0" d="M512.71,253.14l9.23-1.15c1.32-0.33,1.65-1.81,1.65-1.81c0-2.56-3.43-2.56-3.43-2.56
				C515.38,248.44,512.71,253.14,512.71,253.14z"/>
		</g>
		<path class="st1" d="M469.62,375.93c0,0-8.08,31.77-23.75,59.39c0,0-2.87,12.44,0.61,17.15c0,0,15.14,4,14.51,8.99
			c0,0-6.33-2.03-10.61-2.82c0,0-23.08,1.5-4.46-48.89C445.94,409.75,459.22,397.97,469.62,375.93z"/>
		<path class="st1" d="M540.95,273.04c0,0-0.52,3.06-4.1,3.59c0,0-3,0.14-2.88-2.39C533.97,274.24,539.22,274.15,540.95,273.04z"/>
		<g>
			<path class="st1" d="M492.1,271c-2.95-9.14-6.18-11.87-15.83-3.15c-0.12,0.11-0.23,0.22-0.34,0.33
				c-6.52,6.33-14.55,10.81-23.27,13.39c-7.37,2.18-14.81,5.09-14.81,5.09c-6.71,2.46-18.59,11.36-18.59,11.36
				c-16.07,9.86-29.06,14.51-29.06,14.51c-30.97,6.94-57.92,26.84-57.92,26.84c-5.47,4.36-25.74,22.73-29.58,50.39
				c13.97-25.1,47.27-34.6,47.27-34.6c15.84-4.29,31.45,0.12,39.87,4.86c31.26,17.6,26.44,67.39-0.77,86.46
				c-0.39,0.2-0.76,0.42-1.17,0.61c0,0,0.2-0.06,0.53-0.18c-8.26,5.13-2.11,14.54-2.11,14.54h16.18c0-1.77-1.93-3.76-3.71-4.85
				c9.78,0.49,10.92,4.85,10.92,4.85h7.56c-0.93-9.55-14.93-7.57-22.12-6.66c-0.82-0.43-1.69-0.73-1.52-3.8
				c0.18-3.19,1.56-6.17,3.78-8.4c10.46-6.22,25.81-19.66,25.8-45.07c0,0,0.54-12.57-5.17-23.48c5.63,3.65,10.63,8.01,10.63,8.01
				c15.34-15.7,6.21-41.08,6.21-41.08c18.16,19.13,5.48,47.65,5.48,47.65c50.02-49.04,43.17-92.6,43.17-92.6
				c4.09,6.83,8.55,20.81,8.55,20.81C497.6,304.96,496.41,284.33,492.1,271z M412.3,382.99C412.3,382.98,412.3,382.98,412.3,382.99
				L412.3,382.99C412.3,382.99,412.3,382.99,412.3,382.99z"/>
		</g>
	</g>
	<g>
		<path class="st0" d="M271.28,481.2l4.84,22.4c0.19,0.88,0.97,1.51,1.87,1.51h22.78c1.06,0,1.91-0.86,1.91-1.91v-20.98
			c0-1.02-0.8-1.86-1.82-1.91l-27.62-1.42C271.99,478.82,271.02,479.97,271.28,481.2z"/>
		<path class="st0" d="M464.42,479.44v23.85c0,1.06,0.86,1.91,1.91,1.91h21.56c1.34,0,2.26-1.34,1.79-2.59l-9.02-23.85
			c-0.28-0.74-0.99-1.24-1.79-1.24h-12.54C465.27,477.53,464.42,478.39,464.42,479.44z"/>
		<path class="st0" d="M353.2,488.35l-12.64,25.67c-0.63,1.27,0.3,2.76,1.72,2.76l64.06-0.04c1.37,0,2.3-1.4,1.76-2.66l-10.86-25.67
			c-0.3-0.71-1-1.17-1.76-1.17l-40.57,0.04C354.19,487.28,353.52,487.7,353.2,488.35z"/>
		<path class="st0" d="M305.91,482.64v25.66c0,0.89,0.61,1.66,1.48,1.86l25.16,5.83c0.85,0.2,1.73-0.21,2.13-0.99l13.11-25.41
			c0.6-1.16-0.11-2.56-1.4-2.77l-38.27-6.08C306.96,480.57,305.91,481.46,305.91,482.64z"/>
		<path class="st0" d="M254.02,476.27v20.58c0,0.81,0.51,1.53,1.26,1.8l14.53,5.24c1.45,0.52,2.88-0.79,2.5-2.27l-5.87-22.94
			c-0.16-0.63-0.63-1.14-1.25-1.34l-8.66-2.88C255.3,474.04,254.02,474.96,254.02,476.27z"/>
		<path class="st0" d="M402.83,489.55l11.96,24.88c0.39,0.81,1.28,1.24,2.16,1.04l42.75-9.92c0.87-0.2,1.48-0.97,1.48-1.86v-6.08
			v-5.68v-1.1v-6.5v-4.53c0-1.18-1.06-2.08-2.22-1.89l-54.72,8.94C402.99,487.04,402.28,488.4,402.83,489.55z"/>
		<path class="st0" d="M484.68,479.84l8.68,23.98c0.31,0.85,1.16,1.37,2.06,1.25l26.47-3.56c0.95-0.13,1.66-0.94,1.66-1.9v-23.89
			c0-1.13-0.98-2.02-2.1-1.9l-35.15,3.47C485.05,477.41,484.26,478.67,484.68,479.84z"/>
	</g>
	<path class="st0" d="M521.63,455.75h-14.96c-1.98,0-2.66,2.64-0.92,3.59l14.96,8.2c1.28,0.7,2.83-0.22,2.83-1.68v-8.2
		C523.54,456.61,522.68,455.75,521.63,455.75z"/>
	<path class="st0" d="M255.94,455.75h14.96c1.98,0,2.66,2.64,0.92,3.59l-14.96,8.2c-1.28,0.7-2.83-0.22-2.83-1.68v-8.2
		C254.02,456.61,254.88,455.75,255.94,455.75z"/>
	<path class="st2" d="M523.54,507.05l-28.87,4.17h-33.09l-49.9,12.43l-76.95,0.04l-32.74-8.15v-4.42h-30.5L253.13,504v5.76l0,0v3.04
		l0,0v4.38v1.38v4.38l0,0v3.04h0v5.76h0V539v0v1.26v3.12v0v8.8v0c0,4.16,7.09,7.61,12.69,5.01c54.46-25.35,121.17-8.96,121.17-8.96
		c42.07,11.16,85.46,16.24,120.54,6.9c9.67-2.58,16.01-8.58,16.01-15.27l0-5.07h0v-5.76h0l0-2.34c0,0,0,0,0-0.01v0
		c0,0,0-0.28,0-0.69h0v-4.38v-1.38v-2.35l0,0c0,0,0-0.18,0-0.47v-1.56h0c0-1.41,0-3.04,0-3.04h0V507.05z"/>
</g>
</svg>
